<svg xmlns="http://www.w3.org/2000/svg" viewBox="0 0 8532.3 1794.11"><defs><style>.cls-1{fill:#95c4ea;}.cls-1,.cls-2,.cls-3{opacity:0.9;}.cls-2{fill:#6aacdf;}.cls-3{fill:#2496d3;}.cls-4{fill:#fff;}</style></defs><g id="Слой_2" data-name="Слой 2"><g id="Слой_1-2" data-name="Слой 1"><circle class="cls-1" cx="3571.07" cy="897.06" r="897.06"/><circle class="cls-2" cx="2226.14" cy="897.06" r="897.06"/><circle class="cls-3" cx="897.06" cy="897.06" r="897.06"/><g id="pobeda"><path class="cls-4" d="M1358.42,629.39c-162.93,0-282.1,121.12-282.1,270.08v2c0,149,119.17,268.12,280.14,268.12,162.81,0,282-121.13,282-270.08v-2c0-149-119.16-268.12-280-268.12Zm135,272c0,77.48-49.65,141-135,141-81.4,0-137.06-67.42-137.06-142.94v-2c0-75.52,51.61-141,135.1-141,81.4-2.09,136.93,65.47,136.93,144.91Z"/><path class="cls-4" d="M3455.67,526a73.24,73.24,0,0,0-73.43-73.43c-41.81,0-75.52,33.71-75.52,73.43V655.13a298.82,298.82,0,0,0-133-31.75c-162.93,0-284.06,121.12-284.06,272.17v2c0,150.91,121.13,270.08,282,270.08a301,301,0,0,0,135.11-31.75l9.93-6c13.85,21.82,37.76,37.77,65.59,37.77a75.36,75.36,0,0,0,75.39-75.53V895.55Zm-149,395.25c-9.93,65.59-57.63,119.16-133,119.16-81.53,0-137.06-67.55-137.06-144.9v-2.09c0-77.35,51.61-143,135-143,73.57,0,127.14,55.67,135.11,123.09Z"/><path class="cls-4" d="M1972.14,625.34c-49.65,0-95.38,12-133.15,31.88V526a73.5,73.5,0,0,0-147,0v566a75.48,75.48,0,0,0,75.52,75.53c27.83,0,51.61-15.95,65.59-37.77l9.93,6a300.5,300.5,0,0,0,135,31.75c162.93,0,282.1-119.17,282.1-270.08v-2c-4-149-125.18-270.21-288-270.21Zm136.93,270.21c0,77.35-55.53,144.9-136.93,144.9-75.52,0-125.18-51.61-133.15-119.16v-45.6c9.93-67.55,61.55-123.22,135.11-123.22,85.32,0,135,65.6,135,143.08Z"/><path class="cls-4" d="M1024.71,901.43v-2c0-150.92-119.16-270.08-282-270.08a301,301,0,0,0-135.1,31.75l-11.89,3.92c-11.89-21.82-35.8-35.67-63.5-35.67-41.82,0-75.53,31.75-75.53,73.43v566a73.5,73.5,0,1,0,147,0v-129.1a298.23,298.23,0,0,0,133,31.76c166.86,2.09,288-121.13,288-270.08Zm-147,2c0,77.48-51.62,143.07-135,143.07-73.56,0-127.13-55.66-135.1-123.21v-45.6c9.93-65.59,57.62-119.17,133.14-119.17,81.41-2,136.94,65.47,136.94,144.91Z"/><path class="cls-4" d="M2681.11,845.9c-3.92-53.71-41.68-97.35-105.32-97.35s-101.26,37.77-111.19,97.35Zm125.17,228.39c0,29.79-22,51.62-65.59,69.52-47.69,19.86-99.3,23.78-149,23.78-89.38,0-158.89-27.84-208.54-75.53-49.65-49.65-77.48-119.16-77.48-198.6,0-77.35,29.79-144.91,75.52-190.64s111.19-71.47,194.55-71.47c85.46,0,145,27.83,186.72,67.55,49.65,49.65,65.59,111.2,65.59,160.85,0,53.57-27.83,83.36-75.52,83.36h-286c14,67.55,61.68,105.31,135.11,105.31,79.44,0,109.23-35.8,148.95-35.8,31.75,2.09,55.66,29.79,55.66,61.67"/><path class="cls-4" d="M3991.91,843.81c-2-21.82-17.9-93.3-69.52-144.91-45.73-47.69-107.27-77.48-190.63-77.48-47.69,0-73.56,0-119.16,19.86-41.68,15.94-61.55,37.76-61.55,67.55,0,31.75,21.82,59.58,53.58,59.58,35.8,0,35.8-25.87,111.19-25.87,61.54,0,103.35,27.83,123.21,81.41-47.69-21.82-99.3-23.78-99.3-23.78s-180.84-15.95-220.56,142.94c-19.86,109.23,43.77,204.62,174.83,220.56,115.24,7.84,172.73-39.72,172.73-39.72a69.45,69.45,0,0,0,59.58,33.71c37.77,0,69.52-29.8,69.52-69.52,0,0,2.09-190.63-3.92-244.33Zm-242.25,222.51c-57.62,0-105.31-37.76-105.31-81.4,0-45.73,47.69-81.53,105.31-81.53s105.18,37.76,105.18,81.53-47.69,81.4-105.18,81.4Z"/></g><path class="cls-4" d="M5063.47,455.17h57.09v799.28h-57.09Z"/><path class="cls-4" d="M5366,455.17h62.8v111.9H5366Zm2.28,228.36h57.09v570.92h-57.09Z"/><path class="cls-4" d="M5833,1213.34h4.57L6002,683.53h58.23l-180.41,570.92h-89.06L5611.52,683.53h58.24Z"/><path class="cls-4" d="M6602.63,1239.6s-68.51,26.27-179.27,26.27c-131.31,0-198.68-79.93-201-178.13-2.29-78.79-2.29-156.43,0-237.5,2.28-97.06,75.36-178.13,201-178.13C6546.68,672.11,6622,752,6622,850.24v137H6279.49s0,63.94,1.14,94.77c3.43,69.65,45.67,133.6,145,133.6,95.92,0,169-22.84,169-22.84ZM6279.49,937H6565s0-57.09-1.14-81.07c-3.43-70.79-56-133.59-138.17-133.59-94.77,0-141.58,59.37-145,133.59C6279.49,875.36,6279.49,937,6279.49,937Z"/><path class="cls-4" d="M7079.9,722.36c-94.77,0-178.12,111.9-178.12,111.9v420.19h-57.09V683.53h51.38l5.71,82.21s78.78-93.63,180.41-93.63Z"/><path class="cls-4" d="M7264.88,455.17h62.8v111.9h-62.8Zm2.29,228.36h57.09v570.92h-57.09Z"/><path class="cls-4" d="M7944.26,1239.6s-68.51,26.27-179.26,26.27c-131.32,0-198.68-79.93-201-178.13-2.28-78.79-2.28-156.43,0-237.5,2.29-97.06,75.36-178.13,201-178.13,123.31,0,198.67,79.93,198.67,178.13v137H7621.12s0,63.94,1.15,94.77c3.42,69.65,45.67,133.6,145,133.6,95.91,0,169-22.84,169-22.84ZM7621.12,937h285.46s0-57.09-1.14-81.07c-3.43-70.79-55.95-133.59-138.16-133.59-94.77,0-141.59,59.37-145,133.59C7621.12,875.36,7621.12,937,7621.12,937Z"/><path class="cls-4" d="M8486.62,739.48s-73.07-17.12-145-17.12c-73.08,0-126.74,28.54-126.74,100.48,0,161,317.43,65.08,317.43,280.89,0,103.9-54.81,162.14-202.11,162.14-89.06,0-165.56-24-165.56-24l8-50.24s81.07,24,151.86,24c116.47,0,148.44-34.26,148.44-106.19,0-167.85-315.14-66.23-315.14-284.32,0-107.33,74.22-153,183.83-153,79.93,0,153,17.13,153,17.13Z"/></g></g></svg>